HIERARCHY
ROOT Hips
{
	OFFSET 62.890800 8.863803 43.568401
	CHANNELS 6 Xposition Yposition Zposition Zrotation Xrotation Yrotation
	JOINT Chest
	{
		OFFSET -0.160400 1.630001 7.806301
		CHANNELS 6 Xposition Yposition Zposition Zrotation Xrotation Yrotation
		JOINT Chest2
		{
			OFFSET 0.000000 0.000000 3.197998
			CHANNELS 6 Xposition Yposition Zposition Zrotation Xrotation Yrotation
			JOINT Neck
			{
				OFFSET 0.000000 0.000001 7.440701
				CHANNELS 6 Xposition Yposition Zposition Zrotation Xrotation Yrotation
				JOINT Head
				{
					OFFSET 0.000000 0.000000 2.173901
					CHANNELS 6 Xposition Yposition Zposition Zrotation Xrotation Yrotation
					End Site
					{
						OFFSET 0.000000 0.000001 10.420303
					}
				}
			}
			JOINT LeftCollar
			{
				OFFSET 2.426399 -1.880099 4.759399
				CHANNELS 6 Xposition Yposition Zposition Zrotation Xrotation Yrotation
				JOINT LeftShoulder
				{
					OFFSET 4.420197 0.000000 0.000000
					CHANNELS 6 Xposition Yposition Zposition Zrotation Xrotation Yrotation
					JOINT LeftElbow
					{
						OFFSET 0.000000 -0.000001 -10.347099
						CHANNELS 6 Xposition Yposition Zposition Zrotation Xrotation Yrotation
						JOINT LeftWrist
						{
							OFFSET 0.000000 -0.000001 -12.496300
							CHANNELS 6 Xposition Yposition Zposition Zrotation Xrotation Yrotation
							End Site
							{
								OFFSET 0.000000 0.000000 -2.173901
							}
						}
					}
				}
			}
			JOINT RightCollar
			{
				OFFSET -2.781502 -1.903799 5.072601
				CHANNELS 6 Xposition Yposition Zposition Zrotation Xrotation Yrotation
				JOINT RightShoulder
				{
					OFFSET -4.012100 0.000000 0.000000
					CHANNELS 6 Xposition Yposition Zposition Zrotation Xrotation Yrotation
					JOINT RightElbow
					{
						OFFSET 0.000000 -0.000001 -10.346600
						CHANNELS 6 Xposition Yposition Zposition Zrotation Xrotation Yrotation
						JOINT RightWrist
						{
							OFFSET 0.000000 -0.000001 -12.562599
							CHANNELS 6 Xposition Yposition Zposition Zrotation Xrotation Yrotation
							End Site
							{
								OFFSET 0.000000 0.000000 -2.173901
							}
						}
					}
				}
			}
		}
	}
	JOINT LeftHip
	{
		OFFSET 2.047997 -0.047200 -2.693199
		CHANNELS 6 Xposition Yposition Zposition Zrotation Xrotation Yrotation
		JOINT LeftKnee
		{
			OFFSET 0.000000 -0.000001 -18.824400
			CHANNELS 6 Xposition Yposition Zposition Zrotation Xrotation Yrotation
			JOINT LeftAnkle
			{
				OFFSET 0.000000 -0.000002 -19.078199
				CHANNELS 6 Xposition Yposition Zposition Zrotation Xrotation Yrotation
				End Site
				{
					OFFSET 0.000000 -9.342100 0.000001
				}
			}
		}
	}
	JOINT RightHip
	{
		OFFSET -2.129898 -0.022300 -2.538300
		CHANNELS 6 Xposition Yposition Zposition Zrotation Xrotation Yrotation
		JOINT RightKnee
		{
			OFFSET 0.000000 -0.000001 -18.644600
			CHANNELS 6 Xposition Yposition Zposition Zrotation Xrotation Yrotation
			JOINT RightAnkle
			{
				OFFSET 0.000000 -0.000002 -18.801399
				CHANNELS 6 Xposition Yposition Zposition Zrotation Xrotation Yrotation
				End Site
				{
					OFFSET 0.000000 -8.914600 0.000001
				}
			}
		}
	}
}
MOTION
Frames: 10
Frame Time: 0.041667
36.123592 -18.767609 19.253429 225.362884 39.716495 -13.546012 -0.160394 1.630002 7.806303 -31.018683 23.249564 8.393430 0.000005 -0.000005 3.198003 20.632417 -12.226266 2.320918 -0.000009 0.000003 7.440698 -4.915918 26.482028 5.592112 -0.000001 0.000000 2.173903 0.282001 4.323393 0.166607 2.426405 -1.880098 4.759395 -6.796802 13.220952 4.414724 4.420190 -0.000001 -0.000005 -30.679680 17.659058 -105.613596 0.000002 0.000005 -10.347095 -3.302427 -41.134725 -2.806060 -0.000002 0.000001 -12.496310 -241.809843 14.205931 78.355561 -2.781502 -1.903798 5.072603 8.076319 19.385921 -2.026092 -4.012096 0.000004 -0.000000 28.313871 -4.068690 102.456355 0.000002 0.000001 -10.346591 -35.713440 -25.048967 -37.528932 0.000003 -0.000008 -12.562594 41.716272 -6.596073 35.370760 2.047995 -0.047196 -2.693201 140.468564 -24.639673 150.760102 0.000007 0.000001 -18.824400 38.262057 149.062786 -77.945538 0.000002 -0.000001 -19.078201 -4.521934 11.270205 13.856378 -2.129894 -0.022299 -2.538296 -131.205967 0.372992 -109.674690 -0.000001 -0.000009 -18.644596 33.246615 186.062153 32.054856 0.000004 -0.000004 -18.801397 -43.167981 -5.869001 -49.106222
36.108994 -18.764019 19.239527 225.321179 39.697435 -13.576878 -0.160400 1.630007 7.806302 -31.012109 23.259726 8.449858 0.000002 0.000002 3.197998 20.567125 -12.262106 2.317570 -0.000010 -0.000001 7.440697 -4.922722 26.423000 5.652484 -0.000007 -0.000000 2.173910 0.278561 4.294583 0.167218 2.426399 -1.880098 4.759400 -6.786230 13.248174 4.508333 4.420188 -0.000002 0.000010 -30.728895 17.231879 -105.620153 -0.000003 0.000002 -10.347094 -3.476681 -41.220796 -2.668903 0.000000 0.000000 -12.496301 -242.015295 14.292242 78.508134 -2.781503 -1.903798 5.072601 8.285775 19.561667 -2.156145 -4.012094 -0.000001 0.000002 28.087319 -4.344662 102.494959 0.000003 0.000001 -10.346592 -35.745013 -25.115820 -37.581364 0.000002 -0.000009 -12.562601 41.893146 -6.546594 35.657440 2.047995 -0.047194 -2.693203 140.489710 -24.549534 150.784772 -0.000001 -0.000001 -18.824402 38.140155 149.106581 -77.730982 -0.000000 -0.000002 -19.078197 -4.487133 11.227582 13.781312 -2.129898 -0.022293 -2.538305 -131.238656 0.389701 -109.679956 -0.000000 0.000003 -18.644594 33.197660 186.138651 32.007086 -0.000001 -0.000000 -18.801401 -43.433016 -6.005862 -49.288585
36.096188 -18.757420 19.229033 225.263518 39.703668 -13.614093 -0.160400 1.629997 7.806305 -30.982903 23.262730 8.510272 0.000005 0.000001 3.198001 20.478739 -12.295123 2.312097 -0.000004 0.000005 7.440701 -4.939524 26.311053 5.747505 -0.000006 0.000003 2.173906 0.306960 4.258435 0.159707 2.426400 -1.880096 4.759398 -6.756486 13.269614 4.586695 4.420192 -0.000000 0.000006 -30.725217 16.935881 -105.616486 -0.000002 0.000001 -10.347093 -3.470855 -41.346946 -2.527604 -0.000003 -0.000001 -12.496301 -242.257521 14.396220 78.707856 -2.781502 -1.903796 5.072602 8.422668 19.649573 -2.277450 -4.012097 0.000001 -0.000008 27.926408 -4.461783 102.525982 0.000001 0.000003 -10.346593 -35.868503 -25.176079 -37.639895 0.000003 -0.000003 -12.562602 42.075130 -6.493155 35.941354 2.047997 -0.047202 -2.693199 140.477949 -24.376197 150.774131 0.000000 0.000000 -18.824402 37.957506 149.194909 -77.516090 -0.000003 -0.000002 -19.078201 -4.440655 11.185750 13.704186 -2.129890 -0.022297 -2.538297 -131.247891 0.380955 -109.706075 -0.000001 -0.000003 -18.644598 33.122470 186.195711 31.966672 0.000001 0.000003 -18.801397 -43.694984 -6.138040 -49.469725
36.084190 -18.747417 19.222427 225.168620 39.729896 -13.642101 -0.160402 1.629992 7.806311 -30.916513 23.271044 8.576974 0.000008 0.000000 3.197998 20.365087 -12.321916 2.303365 -0.000004 0.000003 7.440701 -4.954439 26.146511 5.851111 -0.000004 -0.000001 2.173905 0.341861 4.204703 0.168917 2.426405 -1.880098 4.759399 -6.707113 13.274695 4.572168 4.420191 0.000005 0.000001 -30.669943 16.720740 -105.537173 -0.000003 0.000007 -10.347096 -3.265458 -41.568040 -2.368646 0.000000 -0.000002 -12.496300 -242.511768 14.457444 78.944740 -2.781501 -1.903797 5.072601 8.397354 19.622910 -2.335736 -4.012101 -0.000004 -0.000003 27.911612 -4.436911 102.522990 0.000001 -0.000001 -10.346592 -36.012620 -25.264120 -37.689322 -0.000006 -0.000003 -12.562599 42.220476 -6.457966 36.157273 2.047987 -0.047205 -2.693206 140.425944 -24.144247 150.719667 -0.000001 0.000001 -18.824402 37.692508 149.301597 -77.305181 0.000004 -0.000002 -19.078201 -4.390456 11.124579 13.622322 -2.129902 -0.022306 -2.538296 -131.217879 0.326723 -109.745731 -0.000001 -0.000002 -18.644598 33.037847 186.213169 31.934403 0.000002 -0.000003 -18.801395 -43.883498 -6.215376 -49.508636
36.071587 -18.735214 19.223619 225.044474 39.781426 -13.660617 -0.160397 1.629995 7.806306 -30.813282 23.284660 8.639448 0.000004 0.000000 3.198004 20.235231 -12.346733 2.292383 0.000003 -0.000000 7.440694 -4.961204 25.931083 5.931287 -0.000007 -0.000002 2.173900 0.361186 4.136809 0.205646 2.426400 -1.880095 4.759400 -6.575722 13.227472 4.488046 4.420192 0.000004 -0.000001 -30.644713 16.651211 -105.390051 0.000000 0.000005 -10.347092 -2.878032 -41.867123 -2.207074 0.000003 -0.000001 -12.496297 -242.743065 14.474762 79.162664 -2.781497 -1.903798 5.072604 8.262278 19.522877 -2.306101 -4.012103 0.000002 -0.000004 27.985507 -4.401757 102.454579 0.000002 0.000001 -10.346598 -36.097990 -25.403186 -37.747484 0.000002 -0.000008 -12.562603 42.324186 -6.439198 36.299365 2.048003 -0.047205 -2.693194 140.330294 -23.858143 150.617214 -0.000000 -0.000001 -18.824402 37.366111 149.424322 -77.108369 -0.000001 -0.000002 -19.078199 -4.331557 11.057625 13.523475 -2.129887 -0.022301 -2.538295 -131.153210 0.212059 -109.794908 -0.000001 -0.000008 -18.644596 32.953887 186.165043 31.922218 -0.000002 -0.000003 -18.801394 -43.973895 -6.242022 -49.429386
36.053192 -18.722916 19.236626 224.936038 39.875983 -13.688920 -0.160391 1.629997 7.806305 -30.693296 23.287796 8.675577 0.000008 0.000002 3.198000 20.092890 -12.372071 2.280616 -0.000005 -0.000000 7.440701 -4.920542 25.690934 5.937684 -0.000007 0.000005 2.173907 0.334722 4.068894 0.253552 2.426394 -1.880099 4.759403 -6.372717 13.131827 4.342995 4.420198 0.000000 -0.000007 -30.680721 16.598085 -105.181853 0.000011 0.000004 -10.347095 -2.417040 -42.243740 -2.015865 0.000001 0.000000 -12.496293 -242.957970 14.479012 79.279672 -2.781503 -1.903801 5.072603 8.196919 19.403177 -2.226896 -4.012095 0.000002 0.000000 27.971903 -4.393042 102.333822 0.000004 0.000004 -10.346593 -36.194265 -25.538969 -37.832831 -0.000003 -0.000009 -12.562606 42.452843 -6.444526 36.367008 2.048002 -0.047205 -2.693193 140.175945 -23.577712 150.513190 -0.000002 0.000000 -18.824400 36.996655 149.432532 -76.942334 -0.000003 -0.000002 -19.078197 -4.337897 10.973003 13.413937 -2.129892 -0.022301 -2.538295 -131.093474 0.121260 -109.849174 -0.000001 0.000002 -18.644600 32.904549 186.076073 31.959705 -0.000005 -0.000005 -18.801395 -44.010679 -6.245574 -49.292078
36.024994 -18.711918 19.263523 224.841618 40.019089 -13.713281 -0.160397 1.629997 7.806306 -30.545473 23.291445 8.668764 0.000001 0.000003 3.197997 19.930277 -12.399969 2.266577 -0.000005 0.000003 7.440702 -4.804549 25.422256 5.854591 -0.000007 0.000005 2.173902 0.246730 3.999680 0.319979 2.426397 -1.880093 4.759401 -6.150786 13.049350 4.209429 4.420195 0.000004 0.000001 -30.727604 16.485321 -104.997213 -0.000002 0.000003 -10.347094 -1.973076 -42.681828 -1.825951 0.000001 -0.000000 -12.496300 -243.082744 14.486187 79.232189 -2.781509 -1.903793 5.072602 8.037300 19.277596 -2.178056 -4.012093 0.000000 -0.000000 28.056307 -4.369959 102.289193 0.000002 -0.000002 -10.346594 -36.284178 -25.663982 -37.927648 -0.000006 0.000001 -12.562599 42.605559 -6.477066 36.375170 2.047991 -0.047198 -2.693199 140.045461 -23.343519 150.463152 -0.000002 0.000001 -18.824398 36.687934 149.410825 -76.803578 0.000001 -0.000002 -19.078199 -4.316230 10.883296 13.289814 -2.129899 -0.022299 -2.538297 -131.051427 0.056805 -109.898980 0.000000 -0.000003 -18.644596 32.876163 185.944264 32.049833 -0.000000 -0.000001 -18.801401 -44.015604 -6.260991 -49.126542
35.983383 -18.702213 19.306221 224.745408 40.168643 -13.726372 -0.160395 1.629998 7.806305 -30.382283 23.319403 8.646873 0.000001 0.000002 3.197998 19.769405 -12.438290 2.251750 -0.000007 -0.000000 7.440701 -4.700356 25.168760 5.754591 -0.000007 0.000003 2.173900 0.137591 3.937493 0.408064 2.426403 -1.880102 4.759396 -5.913454 12.958134 4.059508 4.420197 0.000002 -0.000009 -30.788710 16.398372 -104.798529 -0.000004 0.000004 -10.347084 -1.492332 -43.192095 -1.651078 0.000001 0.000000 -12.496300 -243.138561 14.390054 79.094007 -2.781507 -1.903802 5.072602 7.943301 19.206430 -2.079666 -4.012095 -0.000001 0.000004 28.049290 -4.458594 102.197634 0.000002 -0.000000 -10.346593 -36.350451 -25.833331 -38.041568 0.000008 0.000002 -12.562602 42.752463 -6.526104 36.343017 2.047997 -0.047200 -2.693197 139.949647 -23.232246 150.457142 0.000006 0.000000 -18.824404 36.464109 149.284644 -76.685778 -0.000000 -0.000001 -19.078196 -4.307227 10.790032 13.151331 -2.129896 -0.022305 -2.538301 -131.037671 0.028762 -109.903741 -0.000002 -0.000000 -18.644596 32.863554 185.802401 32.205179 -0.000002 -0.000008 -18.801395 -44.034564 -6.295789 -48.930867
35.931488 -18.693214 19.368219 224.649512 40.344619 -13.735856 -0.160396 1.629996 7.806306 -30.195918 23.358588 8.601748 0.000007 0.000002 3.198000 19.599498 -12.485956 2.232492 -0.000009 -0.000003 7.440703 -4.617838 24.921421 5.668854 -0.000006 0.000001 2.173900 0.033094 3.879993 0.460497 2.426405 -1.880099 4.759398 -5.624446 12.794367 3.956823 4.420207 0.000002 -0.000007 -30.883510 16.496235 -104.598111 -0.000001 0.000000 -10.347088 -0.993131 -43.687686 -1.543978 -0.000000 -0.000002 -12.496298 -243.168559 14.289425 78.922153 -2.781504 -1.903804 5.072600 7.895610 19.193168 -1.851859 -4.012100 0.000001 -0.000004 27.988309 -4.738096 101.980591 0.000005 -0.000001 -10.346591 -36.443577 -25.964797 -38.196453 0.000001 -0.000010 -12.562602 43.012696 -6.561705 36.377065 2.048003 -0.047204 -2.693208 139.879406 -23.215900 150.483261 -0.000002 -0.000001 -18.824400 36.319121 149.074794 -76.604260 0.000002 -0.000000 -19.078201 -4.300823 10.702711 13.005990 -2.129894 -0.022300 -2.538300 -131.048531 0.035172 -109.880566 0.000001 0.000000 -18.644598 32.828416 185.647328 32.431750 -0.000004 -0.000001 -18.801395 -44.104731 -6.368272 -48.762715
35.871189 -18.684010 19.448524 224.554258 40.544758 -13.747166 -0.160391 1.629997 7.806305 -29.991719 23.401644 8.542888 0.000010 -0.000001 3.197998 19.411509 -12.538643 2.207259 -0.000003 0.000000 7.440696 -4.614114 24.690094 5.677091 -0.000003 -0.000002 2.173902 -0.002013 3.811394 0.431075 2.426401 -1.880100 4.759401 -5.288406 12.547078 3.874449 4.420197 0.000008 0.000002 -30.981714 16.834229 -104.371902 -0.000002 0.000001 -10.347092 -0.438514 -44.164048 -1.523041 -0.000003 0.000001 -12.496305 -243.168723 14.177191 78.826489 -2.781501 -1.903801 5.072597 7.844918 19.180544 -1.548776 -4.012102 -0.000000 -0.000001 27.919510 -4.999176 101.694202 0.000001 -0.000001 -10.346593 -36.636144 -26.044263 -38.346123 -0.000002 0.000000 -12.562605 43.347352 -6.593970 36.441545 2.048006 -0.047199 -2.693206 139.824122 -23.269312 150.533749 0.000000 -0.000000 -18.824398 36.224984 148.813033 -76.538622 0.000011 -0.000000 -19.078199 -4.282298 10.615742 12.850486 -2.129892 -0.022303 -2.538300 -131.081316 0.112891 -109.829435 -0.000000 -0.000001 -18.644600 32.774752 185.505807 32.712662 0.000001 0.000000 -18.801394 -44.261842 -6.503752 -48.601546
